<svg width="143" height="46" viewBox="0 0 143 46" fill="none" xmlns="http://www.w3.org/2000/svg">
<g id="Frame" clip-path="url(#clip0_683_2262)">
<path id="Vector" d="M11.4959 13.0611C17.5415 7.2395 24.2223 2.67222 32.876 2.31093C37.0491 2.13369 40.5667 3.89925 43.8436 6.45556C44.7264 7.14406 46.3782 7.38265 47.4816 7.08953C53.1326 5.57619 58.6632 3.56522 64.361 2.28366C66.6014 1.77921 69.1493 2.69949 71.5635 2.96534C74.5529 6.74187 77.4352 7.43719 82.1031 4.78544C88.4429 1.17933 95.6187 -0.23857 103.069 1.59516C106.894 2.53588 109.669 4.6082 111.354 7.91436C116.564 6.08745 121.673 3.8788 126.997 2.53588C132.139 1.23387 137.496 0.818039 142.766 0.00683594C142.846 0.477197 142.926 0.954376 143.007 1.42474C141.275 1.73149 139.516 1.94963 137.81 2.37228C130.829 4.0833 123.833 5.76024 116.892 7.63487C113.628 8.52106 112.317 10.5797 112.659 14.404C113.22 20.6482 111.749 26.5311 107.028 31.0848C104.694 33.3412 101.089 34.2137 99.4373 32.9594C97.5647 31.5347 96.7823 27.4378 98.5144 24.7928C101.323 20.5119 104.419 16.3877 107.73 12.4885C109.977 9.84353 110.251 8.16659 107.482 5.84205C102.166 1.37702 96.0199 1.90192 90.0145 3.56522C85.7679 4.73772 81.7554 6.78959 77.3884 8.54833C78.0103 10.6411 78.6323 12.2976 78.9867 14.0086C80.7389 22.4342 77.2413 28.992 71.5769 34.6295C69.7646 36.4292 67.6981 38.0516 65.5314 39.3741C60.6427 42.3598 57.6668 40.5943 57.6467 34.7795C57.6267 28.3921 59.7332 22.7342 64.0333 18.1123C67.1966 14.7107 70.6808 11.6159 74.4793 7.94163C73.7437 7.51217 72.7405 6.92592 71.7441 6.33286C70.2528 5.48075 68.8283 4.06285 67.2567 3.86516C60.2214 2.97898 54.1291 6.24424 48.01 9.10049C47.7224 9.23683 48.01 10.6343 48.03 11.4455C50.1767 25.6109 44.6996 36.3065 33.411 44.1526C29.2313 47.0566 24.6236 46.5045 22.624 42.7075C21.4804 40.5329 21.2062 37.4381 21.6276 34.9431C22.9584 27.0288 27.954 21.2958 33.5648 16.0673C34.3005 15.3788 35.0695 14.7312 35.8252 14.0631C38.3464 12.393 40.861 10.7229 43.5092 8.96416C39.6371 4.84679 35.2367 2.92444 30.2946 4.0424C22.2094 5.87613 15.5084 10.2389 10.6867 17.2875C5.43029 22.6455 2.9024 29.4556 0.922883 36.5519C0.615255 36.4769 0.307628 36.4019 0 36.3269C0.347753 34.2478 0.35444 32.0255 1.11682 30.1168C2.35402 27.0356 4.1396 24.1793 5.58411 21.1799C6.04555 20.2256 6.1793 19.1076 6.46687 18.0646C6.80793 17.5261 7.14231 16.9808 7.48337 16.4422C8.82088 15.3174 10.1584 14.1859 11.4959 13.0611ZM44.3652 9.82308C39.6037 13.8246 34.7552 17.1171 30.9099 21.3503C26.8973 25.7745 23.2727 30.8257 23.3931 37.479C23.5068 43.5255 27.0311 45.5842 32.214 42.5439C39.6037 38.2152 43.3621 31.0507 45.8499 23.2454C47.1339 19.2439 47.3345 14.8198 44.3652 9.82308ZM75.7165 10.2048C69.8315 13.7223 65.2505 18.051 62.3481 24.1112C60.5358 27.9013 59.2384 31.7665 59.76 36.0952C60.081 38.7674 61.365 39.4013 63.5853 38.2288C71.6505 33.9751 81.2271 23.3068 75.7165 10.2048ZM110.726 12.1544C105.235 16.3809 101.938 21.5685 99.7716 27.4855C99.3904 28.5217 100.24 31.0303 100.995 31.262C102.159 31.6233 104.052 30.9893 105.088 30.11C110.445 25.5563 111.087 19.3326 110.726 12.1544Z" fill="#333333"/>
</g>
<defs>
<clipPath id="clip0_683_2262">
<rect width="143" height="46" fill="white"/>
</clipPath>
</defs>
</svg>
