<svg width="153" height="152" viewBox="0 0 153 152" fill="none" xmlns="http://www.w3.org/2000/svg">
<g id="comment icon">
<g id="SVGRepo_iconCarrier">
<path id="Vector" d="M83.7031 105.75V53.5C83.7117 45.944 86.7171 38.6998 92.06 33.3569C97.403 28.014 104.647 25.0085 112.203 25C113.463 25 114.671 25.5004 115.562 26.3912C116.453 27.282 116.953 28.4902 116.953 29.75C116.953 31.0098 116.453 32.218 115.562 33.1088C114.671 33.9996 113.463 34.5 112.203 34.5C107.166 34.5057 102.336 36.5093 98.7743 40.0712C95.2124 43.6332 93.2088 48.4626 93.2031 53.5V58.25L128.828 58.25C131.347 58.2529 133.761 59.2547 135.542 61.0357C137.323 62.8166 138.325 65.2313 138.328 67.75V105.75C138.325 108.269 137.323 110.683 135.542 112.464C133.761 114.245 131.347 115.247 128.828 115.25H93.2031C90.6845 115.247 88.2698 114.245 86.4888 112.464C84.7078 110.683 83.706 108.269 83.7031 105.75ZM24.3281 115.25H59.9531C62.4718 115.247 64.8865 114.245 66.6675 112.464C68.4484 110.683 69.4502 108.269 69.4531 105.75V67.75C69.4502 65.2313 68.4484 62.8166 66.6675 61.0357C64.8865 59.2547 62.4718 58.2529 59.9531 58.25L24.3281 58.25L24.3281 53.5C24.3338 48.4626 26.3374 43.6332 29.8993 40.0712C33.4613 36.5093 38.2907 34.5057 43.3281 34.5C44.5879 34.5 45.7961 33.9996 46.6869 33.1088C47.5777 32.218 48.0781 31.0098 48.0781 29.75C48.0781 28.4902 47.5777 27.282 46.6869 26.3912C45.7961 25.5004 44.5879 25 43.3281 25C35.7721 25.0085 28.528 28.014 23.185 33.3569C17.8421 38.6998 14.8367 45.944 14.8281 53.5L14.8281 105.75C14.831 108.269 15.8328 110.683 17.6138 112.464C19.3948 114.245 21.8095 115.247 24.3281 115.25Z" fill="#D9D9D9" stroke="#D9D9D9"/>
</g>
</g>
</svg>
