<svg width="82" height="76" viewBox="0 0 82 76" fill="none" xmlns="http://www.w3.org/2000/svg">
<g id="vuesax/bold/cup">
<g id="cup">
<path id="Vector" d="M38.3129 57.7917H30.67C26.9334 57.7917 23.8762 60.6417 23.8762 64.125V64.9167H20.4793C19.0866 64.9167 17.9316 65.9934 17.9316 67.2917C17.9316 68.59 19.0866 69.6667 20.4793 69.6667H61.2419C62.6346 69.6667 63.7896 68.59 63.7896 67.2917C63.7896 65.9934 62.6346 64.9167 61.2419 64.9167H57.845V64.125C57.845 60.6417 54.7878 57.7917 51.0513 57.7917H43.4083V50.54C42.559 50.635 41.7098 50.6667 40.8606 50.6667C40.0114 50.6667 39.1622 50.635 38.3129 50.54V57.7917Z" fill="black"/>
<path id="Vector_2" d="M62.8713 36.8602C65.1132 36.0685 67.0834 34.7702 68.646 33.3135C71.8051 30.0518 73.8772 26.1568 73.8772 21.5968C73.8772 17.0368 70.0387 13.4585 65.1472 13.4585H63.245C61.037 9.24683 56.4172 6.3335 51.0502 6.3335H30.6689C25.3018 6.3335 20.682 9.24683 18.474 13.4585H16.5718C11.6803 13.4585 7.8418 17.0368 7.8418 21.5968C7.8418 26.1568 9.9139 30.0518 13.073 33.3135C14.6356 34.7702 16.6058 36.0685 18.8477 36.8602C22.3805 44.9668 30.8727 50.6668 40.8595 50.6668C50.8463 50.6668 59.3385 44.9668 62.8713 36.8602ZM50.5067 26.7585L48.4006 29.1652C48.0609 29.5135 47.8231 30.2102 47.8571 30.6852L48.0609 33.7885C48.1968 35.6885 46.7361 36.6702 44.8339 35.9735L41.7427 34.8335C41.2671 34.6752 40.4519 34.6752 39.9763 34.8335L36.8852 35.9735C34.9829 36.6702 33.5222 35.6885 33.6581 33.7885L33.8619 30.6852C33.8959 30.2102 33.6581 29.5135 33.3184 29.1652L31.2124 26.7585C29.8876 25.3018 30.465 23.6868 32.4352 23.2118L35.6623 22.4518C36.1718 22.3252 36.7832 21.8818 37.055 21.4702L38.8553 18.8735C39.9763 17.2585 41.7427 17.2585 42.8637 18.8735L44.664 21.4702C44.9358 21.8818 45.5472 22.3252 46.0567 22.4518L49.2838 23.2118C51.254 23.6868 51.8314 25.3018 50.5067 26.7585Z" fill="black"/>
</g>
</g>
</svg>
