<svg width="83" height="76" viewBox="0 0 83 76" fill="none" xmlns="http://www.w3.org/2000/svg">
<g id="vuesax/bulk/people">
<g id="people">
<path id="Vector" opacity="0.4" d="M60.3598 24.6052C60.122 24.5735 59.8842 24.5735 59.6465 24.6052C54.3813 24.4468 50.2031 20.4252 50.2031 15.4852C50.2031 10.4502 54.5851 6.3335 60.0201 6.3335C65.4212 6.3335 69.8371 10.4185 69.8371 15.4852C69.8031 20.4252 65.625 24.4468 60.3598 24.6052Z" fill="black"/>
<path id="Vector_2" opacity="0.4" d="M71.4341 46.5498C67.6296 48.9248 62.2965 49.8114 57.371 49.2098C58.6618 46.6131 59.3412 43.7315 59.3752 40.6915C59.3752 37.5248 58.6279 34.5165 57.2012 31.8882C62.2286 31.2548 67.5617 32.1414 71.4001 34.5164C76.7672 37.8098 76.7672 43.2248 71.4341 46.5498Z" fill="black"/>
<path id="Vector_3" opacity="0.4" d="M22.6882 24.6052C22.926 24.5735 23.1638 24.5735 23.4016 24.6052C28.6668 24.4468 32.8449 20.4252 32.8449 15.4852C32.8449 10.4502 28.4629 6.3335 23.0279 6.3335C17.6269 6.3335 13.2109 10.4185 13.2109 15.4852C13.2449 20.4252 17.4231 24.4468 22.6882 24.6052Z" fill="black"/>
<path id="Vector_4" opacity="0.4" d="M23.0626 40.6916C23.0626 43.7633 23.776 46.6766 25.0668 49.3049C20.2772 49.7799 15.2838 48.8299 11.6152 46.5816C6.24808 43.2566 6.24808 37.8416 11.6152 34.5166C15.2498 32.2366 20.3791 31.3183 25.2027 31.8249C23.81 34.4849 23.0626 37.4933 23.0626 40.6916Z" fill="black"/>
<path id="Vector_5" d="M41.9823 50.255C41.7106 50.2233 41.4049 50.2233 41.0992 50.255C34.8489 50.065 29.8555 45.2833 29.8555 39.3933C29.8555 33.3767 35.0527 28.5 41.5408 28.5C47.9948 28.5 53.226 33.3767 53.226 39.3933C53.226 45.2833 48.2666 50.065 41.9823 50.255Z" fill="black"/>
<path id="Vector_6" d="M30.9427 56.8099C25.8134 60.0082 25.8134 65.2649 30.9427 68.4315C36.7853 72.0732 46.3645 72.0732 52.2072 68.4315C57.3365 65.2332 57.3365 59.9765 52.2072 56.8099C46.3985 53.1682 36.8193 53.1682 30.9427 56.8099Z" fill="black"/>
</g>
</g>
</svg>
