<svg width="83" height="76" viewBox="0 0 83 76" fill="none" xmlns="http://www.w3.org/2000/svg">
<g id="vuesax/bold/like-shapes">
<g id="like-shapes">
<path id="Vector" d="M74.0491 34.0098L69.4293 29.0064C68.5461 28.0564 67.8328 26.2831 67.8328 25.0164V19.6331C67.8328 16.2764 64.8775 13.5214 61.2768 13.5214H55.5021C54.1773 13.5214 52.2411 12.8564 51.222 12.0331L45.855 7.72645C43.5111 5.85811 39.6726 5.85811 37.2948 7.72645L31.9617 12.0648C30.9426 12.8564 29.0064 13.5214 27.6816 13.5214H21.805C18.2043 13.5214 15.249 16.2764 15.249 19.6331V25.0481C15.249 26.2831 14.5357 28.0564 13.6865 29.0064L9.10069 34.0414C7.1305 36.2264 7.1305 39.7731 9.10069 41.9581L13.6865 46.9931C14.5357 47.9431 15.249 49.7164 15.249 50.9514V56.3664C15.249 59.7231 18.2043 62.4781 21.805 62.4781H27.6816C29.0064 62.4781 30.9426 63.1431 31.9617 63.9665L37.3288 68.2731C39.6726 70.1414 43.5111 70.1414 45.8889 68.2731L51.256 63.9665C52.2751 63.1431 54.1773 62.4781 55.5361 62.4781H61.3108C64.9115 62.4781 67.8668 59.7231 67.8668 56.3664V50.9831C67.8668 49.7481 68.5801 47.9431 69.4633 46.9931L74.0831 41.9898C76.0532 39.8048 76.0532 36.1948 74.0491 34.0098ZM57.4723 37.9998L53.4979 49.2731C52.9884 51.1414 50.8484 52.6614 48.6744 52.6614H42.3901C41.3031 52.6614 39.7745 52.3131 39.0952 51.6798L34.1017 48.0381C33.9998 50.0648 33.0147 50.9198 30.603 50.9198H28.9725C26.4588 50.9198 25.4397 50.0014 25.4397 47.7848V32.6481C25.4397 30.4314 26.4588 29.5131 28.9725 29.5131H30.6369C33.1506 29.5131 34.1697 30.4314 34.1697 32.6481V33.7881L40.7596 24.6681C41.439 23.6864 43.1714 22.9898 44.6321 23.5281C46.2286 24.0348 47.2477 25.6814 46.908 27.1381L46.0927 32.0781C46.0248 32.5214 46.1267 32.9331 46.4324 33.2498C46.7042 33.5348 47.1118 33.7248 47.5534 33.7248H54.1773C55.4681 33.7248 56.5551 34.1998 57.2005 35.0548C57.778 35.8781 57.8799 36.9231 57.4723 37.9998Z" fill="black"/>
</g>
</g>
</svg>
