<svg width="57" height="66" viewBox="0 0 57 66" fill="none" xmlns="http://www.w3.org/2000/svg">
<g id="Group">
<path id="Vector" d="M5.71168 12.6078L7.91286 21.3478L5.71168 30.0498L13.905 34.7618L18.9188 42.3998L28.2942 40.3478L37.6696 42.3998L42.6834 34.7618L50.8767 30.0498L48.6755 21.3478L50.8767 12.6078L42.7241 7.89581L37.6696 0.257812L28.2942 2.34781L18.9595 0.295812L13.8642 7.89581L5.71168 12.6078ZM28.3349 36.6998C19.2856 36.6998 11.9891 29.8978 11.9891 21.4618C11.9891 13.1018 19.2856 6.29981 28.3349 6.29981C37.3027 6.29981 44.5992 13.1018 44.5992 21.4618C44.5992 29.8978 37.3027 36.6998 28.3349 36.6998ZM28.2534 32.8998C21.4868 32.8998 16.0654 27.8078 16.0654 21.4998C16.0654 15.2298 21.4868 10.0998 28.2534 10.0998C35.02 10.0998 40.5229 15.2298 40.5229 21.4998C40.5229 27.8078 35.02 32.8998 28.2534 32.8998ZM43.9062 37.0798L38.6886 45.5918L30.21 43.8058L40.5229 65.9598L46.2297 57.5998H56.4204L43.9062 37.0798ZM12.519 37.3458L17.6144 45.8958L26.2968 43.9578L16.0654 65.9598L10.3586 57.5998H0.167969L12.519 37.3458Z" fill="black"/>
</g>
</svg>
